<?xml version="1.0" encoding="utf-8"?>
<!-- Generator: Adobe Illustrator 21.1.0, SVG Export Plug-In . SVG Version: 6.00 Build 0)  -->
<svg version="1.1" id="Слой_1" xmlns="http://www.w3.org/2000/svg" xmlns:xlink="http://www.w3.org/1999/xlink" x="0px" y="0px"
	 viewBox="0 0 1023 184" style="enable-background:new 0 0 1023 184;" xml:space="preserve">
<style type="text/css">
	.st0{clip-path:url(#SVGID_2_);fill:#FFF45F;}
	.st1{clip-path:url(#SVGID_2_);}
	.st2{clip-path:url(#SVGID_4_);fill:#151515;}
</style>
<g id="LOgo">
	<g>
		<defs>
			<rect id="SVGID_1_" y="0" width="985.7" height="184"/>
		</defs>
		<clipPath id="SVGID_2_">
			<use xlink:href="#SVGID_1_"  style="overflow:visible;"/>
		</clipPath>
		<rect y="0" class="st0" width="788" height="184"/>
		<g class="st1">
			<defs>
				<rect id="SVGID_3_" y="0" width="985.7" height="184"/>
			</defs>
			<clipPath id="SVGID_4_">
				<use xlink:href="#SVGID_3_"  style="overflow:visible;"/>
			</clipPath>
			<path class="st2" d="M87.2,131.6c20,0,34.4-10.3,35.9-30.1h-22c-0.2,3.6-1.8,6.9-4.5,9.3c-2.7,2.4-6.3,3.5-9.8,3.2
				c-10.6,0-16.5-7.8-16.5-21.6v-0.8c0-13.9,6.3-21.6,16.2-21.6c3.4-0.3,6.7,0.9,9.1,3.2c2.5,2.3,3.8,5.5,3.8,8.9h22.8
				c-1.8-20.2-15.8-29.4-35.8-29.4C75.8,52.1,65.5,56,58,63.5C50.6,70.9,46.5,81.2,47,91.7v0.9C47,116,60.2,131.6,87.2,131.6
				 M143.3,130.4h22.2v-30.2h25.4v30.2H213V53.8h-22.1V83h-25.4V53.8h-22.2L143.3,130.4L143.3,130.4z M271.6,131.6
				c21.3,0,34.4-10.4,34.4-32.7V53.8h-22.3V98c0,11.5-2.9,16.4-12.1,16.4c-9.4,0-12.1-5.2-12.1-16.1V53.8h-22.1v45.5
				C237.4,120.7,249.8,131.6,271.6,131.6L271.6,131.6z M330.3,130.4h51.3v-17h-29.1V53.8h-22.2L330.3,130.4L330.3,130.4z
				 M434.7,71.6l8.4,29.4h-16.9L434.7,71.6z M397.1,130.4h20.6l4.1-14.2h25.6l4.1,14.2h23.4l-24.5-76.5h-28.6L397.1,130.4z
				 M492.5,130.4h22.2v-32l22.2,32h25.6l-29.7-41L561,53.8h-23.1l-23.2,30.3V53.8h-22.2L492.5,130.4L492.5,130.4z M611.8,131.7
				c24.9,0,41.2-16.1,41.2-39.6v-0.9c0-23.8-17.4-38.4-40.9-38.4c-10.7-0.6-21.2,3.2-28.9,10.6c-7.7,7.4-12,17.7-11.9,28.4v0.9
				C571.4,115.6,586.9,131.6,611.8,131.7L611.8,131.7z M612.2,114.4c-10.7,0-17.8-8-17.8-22v-0.9c0-13.9,6.8-21.7,17.7-21.7
				c10.9,0,17.8,8,17.8,21.6v0.9C630,106,623.1,114.4,612.2,114.4L612.2,114.4z M689.5,130.4h25.1l25.2-76.5h-20.7l-15.8,53.7
				l-15.6-53.7H664L689.5,130.4z M856.2,88.7V70.3h7.2c7.1,0,11,2.5,11,8.7v0.4c0,6.2-3.7,9.3-11.1,9.3L856.2,88.7L856.2,88.7z
				 M834.2,130.4h22v-27.4h5.2l15.6,27.4h23.3l-18.5-31.7c8.7-2.8,14.4-11,13.9-20.1v-0.4c0-16.2-11.2-24.3-31.4-24.3h-30.2
				L834.2,130.4L834.2,130.4z M951.3,131.7c21.3,0,34.4-10.4,34.4-32.7V53.8h-22.3V98c0,11.5-2.9,16.4-12.1,16.4
				c-9.4,0-12.1-5.2-12.1-16.1V53.8h-22.1v45.5C917.1,120.7,929.5,131.6,951.3,131.7L951.3,131.7z"/>
		</g>
	</g>
</g>
</svg>
